<svg width="680" height="680" viewBox="0 0 680 680" fill="none" xmlns="http://www.w3.org/2000/svg">
<path d="M84.2971 285.695C91.7861 285.695 97.8572 291.766 97.8571 299.255L97.8571 368.992C97.8571 376.481 91.7861 382.552 84.2971 382.552H14.56C7.07104 382.552 1 376.481 1 368.992L1 299.255C1 291.766 7.07102 285.695 14.56 285.695H84.2971Z" stroke="url(#paint0_linear_40000035_4025)"/>
<path d="M59.017 509.937C53.7215 515.233 53.7214 523.819 59.0169 529.114L108.329 578.426C113.624 583.721 122.21 583.721 127.505 578.426L245.305 460.626C250.601 455.33 250.601 446.745 245.305 441.449L195.994 392.138C190.698 386.842 182.112 386.842 176.817 392.138L59.017 509.937Z" stroke="url(#paint1_linear_40000035_4025)"/>
<path d="M59.017 170.062C53.7215 164.766 53.7214 156.18 59.0169 150.885L108.329 101.573C113.624 96.2779 122.21 96.2779 127.505 101.573L245.305 219.373C250.601 224.669 250.601 233.255 245.305 238.55L195.994 287.862C190.698 293.157 182.112 293.157 176.817 287.862L59.017 170.062Z" stroke="url(#paint2_linear_40000035_4025)"/>
<path d="M595.703 285.695C588.214 285.695 582.143 291.766 582.143 299.255V368.992C582.143 376.481 588.214 382.552 595.703 382.552H665.44C672.929 382.552 679 376.481 679 368.992V299.255C679 291.766 672.929 285.695 665.44 285.695H595.703Z" stroke="url(#paint3_linear_40000035_4025)"/>
<path d="M620.983 509.937C626.279 515.233 626.279 523.819 620.983 529.114L571.672 578.426C566.376 583.721 557.79 583.721 552.495 578.426L434.695 460.626C429.399 455.33 429.399 446.745 434.695 441.449L484.006 392.138C489.302 386.842 497.888 386.842 503.183 392.138L620.983 509.937Z" stroke="url(#paint4_linear_40000035_4025)"/>
<path d="M620.983 170.062C626.279 164.766 626.279 156.18 620.983 150.885L571.671 101.573C566.376 96.2779 557.79 96.2779 552.495 101.573L434.695 219.373C429.399 224.669 429.399 233.255 434.695 238.55L484.006 287.862C489.302 293.157 497.888 293.157 503.183 287.862L620.983 170.062Z" stroke="url(#paint5_linear_40000035_4025)"/>
<path d="M291.571 14.56C291.571 7.07101 297.642 1 305.131 1H374.868C382.357 1 388.428 7.07102 388.428 14.56V665.44C388.428 672.929 382.357 679 374.868 679H305.131C297.642 679 291.571 672.929 291.571 665.44V14.56Z" stroke="url(#paint6_linear_40000035_4025)"/>
<path d="M84.2971 285.695C91.7861 285.695 97.8571 291.766 97.8571 299.255L97.8571 368.992C97.8571 376.481 91.7861 382.552 84.2971 382.552H14.56C7.07104 382.552 1 376.481 1 368.992L1 299.255C1 291.766 7.07102 285.695 14.56 285.695H84.2971Z" fill="url(#paint7_radial_40000035_4025)" fill-opacity="0.4"/>
<path d="M59.017 509.937C53.7215 515.233 53.7214 523.819 59.0169 529.114L108.329 578.426C113.624 583.721 122.21 583.721 127.505 578.426L245.305 460.626C250.601 455.33 250.601 446.745 245.305 441.449L195.994 392.138C190.698 386.842 182.112 386.842 176.817 392.138L59.017 509.937Z" fill="url(#paint8_radial_40000035_4025)" fill-opacity="0.4"/>
<path d="M59.017 170.062C53.7215 164.766 53.7214 156.18 59.0169 150.885L108.329 101.573C113.624 96.2779 122.21 96.2779 127.505 101.573L245.305 219.373C250.601 224.669 250.601 233.255 245.305 238.55L195.994 287.862C190.698 293.157 182.112 293.157 176.817 287.862L59.017 170.062Z" fill="url(#paint9_radial_40000035_4025)" fill-opacity="0.4"/>
<path d="M595.703 285.695C588.214 285.695 582.143 291.766 582.143 299.255V368.992C582.143 376.481 588.214 382.552 595.703 382.552H665.44C672.929 382.552 679 376.481 679 368.992V299.255C679 291.766 672.929 285.695 665.44 285.695H595.703Z" fill="url(#paint10_radial_40000035_4025)" fill-opacity="0.4"/>
<path d="M620.983 509.937C626.279 515.233 626.279 523.819 620.983 529.114L571.672 578.426C566.376 583.721 557.79 583.721 552.495 578.426L434.695 460.626C429.399 455.33 429.399 446.745 434.695 441.449L484.006 392.138C489.302 386.842 497.888 386.842 503.183 392.138L620.983 509.937Z" fill="url(#paint11_radial_40000035_4025)" fill-opacity="0.4"/>
<path d="M620.983 170.062C626.279 164.766 626.279 156.18 620.983 150.885L571.671 101.573C566.376 96.2779 557.79 96.2779 552.495 101.573L434.695 219.373C429.399 224.669 429.399 233.255 434.695 238.55L484.006 287.862C489.302 293.157 497.888 293.157 503.183 287.862L620.983 170.062Z" fill="url(#paint12_radial_40000035_4025)" fill-opacity="0.4"/>
<path d="M291.571 14.56C291.571 7.07101 297.642 1 305.131 1H374.868C382.357 1 388.428 7.07102 388.428 14.56V665.44C388.428 672.929 382.357 679 374.868 679H305.131C297.642 679 291.571 672.929 291.571 665.44V14.56Z" fill="url(#paint13_radial_40000035_4025)" fill-opacity="0.4"/>
<path d="M84.2971 285.695C91.7861 285.695 97.8571 291.766 97.8571 299.255L97.8571 368.992C97.8571 376.481 91.7861 382.552 84.2971 382.552H14.56C7.07104 382.552 1 376.481 1 368.992L1 299.255C1 291.766 7.07102 285.695 14.56 285.695H84.2971Z" stroke="url(#paint14_linear_40000035_4025)"/>
<path d="M59.017 509.937C53.7215 515.233 53.7214 523.819 59.0169 529.114L108.329 578.426C113.624 583.721 122.21 583.721 127.505 578.426L245.305 460.626C250.601 455.33 250.601 446.745 245.305 441.449L195.994 392.138C190.698 386.842 182.112 386.842 176.817 392.138L59.017 509.937Z" stroke="url(#paint15_linear_40000035_4025)"/>
<path d="M59.017 170.062C53.7215 164.766 53.7214 156.18 59.0169 150.885L108.329 101.573C113.624 96.2779 122.21 96.2779 127.505 101.573L245.305 219.373C250.601 224.669 250.601 233.255 245.305 238.55L195.994 287.862C190.698 293.157 182.112 293.157 176.817 287.862L59.017 170.062Z" stroke="url(#paint16_linear_40000035_4025)"/>
<path d="M595.703 285.695C588.214 285.695 582.143 291.766 582.143 299.255V368.992C582.143 376.481 588.214 382.552 595.703 382.552H665.44C672.929 382.552 679 376.481 679 368.992V299.255C679 291.766 672.929 285.695 665.44 285.695H595.703Z" stroke="url(#paint17_linear_40000035_4025)"/>
<path d="M620.983 509.937C626.279 515.233 626.279 523.819 620.983 529.114L571.672 578.426C566.376 583.721 557.79 583.721 552.495 578.426L434.695 460.626C429.399 455.33 429.399 446.745 434.695 441.449L484.006 392.138C489.302 386.842 497.888 386.842 503.183 392.138L620.983 509.937Z" stroke="url(#paint18_linear_40000035_4025)"/>
<path d="M620.983 170.062C626.279 164.766 626.279 156.18 620.983 150.885L571.671 101.573C566.376 96.2779 557.79 96.2779 552.495 101.573L434.695 219.373C429.399 224.669 429.399 233.255 434.695 238.55L484.006 287.862C489.302 293.157 497.888 293.157 503.183 287.862L620.983 170.062Z" stroke="url(#paint19_linear_40000035_4025)"/>
<path d="M291.571 14.56C291.571 7.07101 297.642 1 305.131 1H374.868C382.357 1 388.428 7.07102 388.428 14.56V665.44C388.428 672.929 382.357 679 374.868 679H305.131C297.642 679 291.571 672.929 291.571 665.44V14.56Z" stroke="url(#paint20_linear_40000035_4025)"/>
<defs>
<linearGradient id="paint0_linear_40000035_4025" x1="202.281" y1="60.5898" x2="444.613" y2="644.57" gradientUnits="userSpaceOnUse">
<stop offset="0.2" stop-color="#363636"/>
<stop offset="0.4" stop-color="#1B1B1B"/>
<stop offset="1" stop-color="#868788"/>
</linearGradient>
<linearGradient id="paint1_linear_40000035_4025" x1="202.281" y1="60.5898" x2="444.613" y2="644.57" gradientUnits="userSpaceOnUse">
<stop offset="0.2" stop-color="#363636"/>
<stop offset="0.4" stop-color="#1B1B1B"/>
<stop offset="1" stop-color="#868788"/>
</linearGradient>
<linearGradient id="paint2_linear_40000035_4025" x1="202.281" y1="60.5898" x2="444.613" y2="644.57" gradientUnits="userSpaceOnUse">
<stop offset="0.2" stop-color="#363636"/>
<stop offset="0.4" stop-color="#1B1B1B"/>
<stop offset="1" stop-color="#868788"/>
</linearGradient>
<linearGradient id="paint3_linear_40000035_4025" x1="202.281" y1="60.5898" x2="444.613" y2="644.57" gradientUnits="userSpaceOnUse">
<stop offset="0.2" stop-color="#363636"/>
<stop offset="0.4" stop-color="#1B1B1B"/>
<stop offset="1" stop-color="#868788"/>
</linearGradient>
<linearGradient id="paint4_linear_40000035_4025" x1="202.281" y1="60.5898" x2="444.613" y2="644.57" gradientUnits="userSpaceOnUse">
<stop offset="0.2" stop-color="#363636"/>
<stop offset="0.4" stop-color="#1B1B1B"/>
<stop offset="1" stop-color="#868788"/>
</linearGradient>
<linearGradient id="paint5_linear_40000035_4025" x1="202.281" y1="60.5898" x2="444.613" y2="644.57" gradientUnits="userSpaceOnUse">
<stop offset="0.2" stop-color="#363636"/>
<stop offset="0.4" stop-color="#1B1B1B"/>
<stop offset="1" stop-color="#868788"/>
</linearGradient>
<linearGradient id="paint6_linear_40000035_4025" x1="202.281" y1="60.5898" x2="444.613" y2="644.57" gradientUnits="userSpaceOnUse">
<stop offset="0.2" stop-color="#363636"/>
<stop offset="0.4" stop-color="#1B1B1B"/>
<stop offset="1" stop-color="#868788"/>
</linearGradient>
<radialGradient id="paint7_radial_40000035_4025" cx="0" cy="0" r="1" gradientUnits="userSpaceOnUse" gradientTransform="translate(340 340) rotate(180) scale(339 339.218)">
<stop stop-color="#505152"/>
<stop offset="0.35" stop-color="#505152"/>
<stop offset="1" stop-color="#1B1B1B"/>
</radialGradient>
<radialGradient id="paint8_radial_40000035_4025" cx="0" cy="0" r="1" gradientUnits="userSpaceOnUse" gradientTransform="translate(340 340) rotate(180) scale(339 339.218)">
<stop stop-color="#505152"/>
<stop offset="0.35" stop-color="#505152"/>
<stop offset="1" stop-color="#1B1B1B"/>
</radialGradient>
<radialGradient id="paint9_radial_40000035_4025" cx="0" cy="0" r="1" gradientUnits="userSpaceOnUse" gradientTransform="translate(340 340) rotate(180) scale(339 339.218)">
<stop stop-color="#505152"/>
<stop offset="0.35" stop-color="#505152"/>
<stop offset="1" stop-color="#1B1B1B"/>
</radialGradient>
<radialGradient id="paint10_radial_40000035_4025" cx="0" cy="0" r="1" gradientUnits="userSpaceOnUse" gradientTransform="translate(340 340) rotate(180) scale(339 339.218)">
<stop stop-color="#505152"/>
<stop offset="0.35" stop-color="#505152"/>
<stop offset="1" stop-color="#1B1B1B"/>
</radialGradient>
<radialGradient id="paint11_radial_40000035_4025" cx="0" cy="0" r="1" gradientUnits="userSpaceOnUse" gradientTransform="translate(340 340) rotate(180) scale(339 339.218)">
<stop stop-color="#505152"/>
<stop offset="0.35" stop-color="#505152"/>
<stop offset="1" stop-color="#1B1B1B"/>
</radialGradient>
<radialGradient id="paint12_radial_40000035_4025" cx="0" cy="0" r="1" gradientUnits="userSpaceOnUse" gradientTransform="translate(340 340) rotate(180) scale(339 339.218)">
<stop stop-color="#505152"/>
<stop offset="0.35" stop-color="#505152"/>
<stop offset="1" stop-color="#1B1B1B"/>
</radialGradient>
<radialGradient id="paint13_radial_40000035_4025" cx="0" cy="0" r="1" gradientUnits="userSpaceOnUse" gradientTransform="translate(340 340) rotate(180) scale(339 339.218)">
<stop stop-color="#505152"/>
<stop offset="0.35" stop-color="#505152"/>
<stop offset="1" stop-color="#1B1B1B"/>
</radialGradient>
<linearGradient id="paint14_linear_40000035_4025" x1="202.281" y1="60.5898" x2="444.613" y2="644.57" gradientUnits="userSpaceOnUse">
<stop offset="0.2" stop-color="#363636"/>
<stop offset="0.4" stop-color="#1B1B1B"/>
<stop offset="1" stop-color="#868788"/>
</linearGradient>
<linearGradient id="paint15_linear_40000035_4025" x1="202.281" y1="60.5898" x2="444.613" y2="644.57" gradientUnits="userSpaceOnUse">
<stop offset="0.2" stop-color="#363636"/>
<stop offset="0.4" stop-color="#1B1B1B"/>
<stop offset="1" stop-color="#868788"/>
</linearGradient>
<linearGradient id="paint16_linear_40000035_4025" x1="202.281" y1="60.5898" x2="444.613" y2="644.57" gradientUnits="userSpaceOnUse">
<stop offset="0.2" stop-color="#363636"/>
<stop offset="0.4" stop-color="#1B1B1B"/>
<stop offset="1" stop-color="#868788"/>
</linearGradient>
<linearGradient id="paint17_linear_40000035_4025" x1="202.281" y1="60.5898" x2="444.613" y2="644.57" gradientUnits="userSpaceOnUse">
<stop offset="0.2" stop-color="#363636"/>
<stop offset="0.4" stop-color="#1B1B1B"/>
<stop offset="1" stop-color="#868788"/>
</linearGradient>
<linearGradient id="paint18_linear_40000035_4025" x1="202.281" y1="60.5898" x2="444.613" y2="644.57" gradientUnits="userSpaceOnUse">
<stop offset="0.2" stop-color="#363636"/>
<stop offset="0.4" stop-color="#1B1B1B"/>
<stop offset="1" stop-color="#868788"/>
</linearGradient>
<linearGradient id="paint19_linear_40000035_4025" x1="202.281" y1="60.5898" x2="444.613" y2="644.57" gradientUnits="userSpaceOnUse">
<stop offset="0.2" stop-color="#363636"/>
<stop offset="0.4" stop-color="#1B1B1B"/>
<stop offset="1" stop-color="#868788"/>
</linearGradient>
<linearGradient id="paint20_linear_40000035_4025" x1="202.281" y1="60.5898" x2="444.613" y2="644.57" gradientUnits="userSpaceOnUse">
<stop offset="0.2" stop-color="#363636"/>
<stop offset="0.4" stop-color="#1B1B1B"/>
<stop offset="1" stop-color="#868788"/>
</linearGradient>
</defs>
</svg>
